# AST/ASF file generated using VICON BodyLanguage
# -----------------------------------------------
:version 1.10
:name VICON
:units
  mass 1.0
  length 0.45
  angle deg
:documentation
   .ast/.asf automatically generated from VICON data using
   VICON BodyBuilder and BodyLanguage model FoxedUp or BRILLIANT.MOD
:root
   order TX TY TZ RX RY RZ
   axis XYZ
   position 0 0 0  
   orientation 0 0 0 
:bonedata
  begin
     id 1 
     name lhipjoint
     direction 0.584852 -0.759097 0.285867 
     length 2.43633 
     axis 0 0 0  XYZ
  end
  begin
     id 2 
     name lfemur
     direction 0.34202 -0.939693 0  
     length 7.14704  
     axis 0 0 20  XYZ
    dof rx ry rz
    limits (-160.0 20.0)
           (-70.0 70.0)
           (-60.0 70.0)
  end
  begin
     id 3 
     name ltibia
     direction 0.342022 -0.939692 0   
     length 7.68483   
     axis 0 0 20   XYZ
    dof rx
    limits (-10.0 170.0)
  end
  begin
     id 4 
     name lfoot
     direction 0.0999605 -0.274639 0.956337   
     length 2.40452   
     axis -90 7.62852e-016 20   XYZ
    dof rx rz
    limits (-45.0 90.0)
           (-70.0 20.0)
  end
  begin
     id 5 
     name ltoes
     direction 1.53468e-011 -4.21881e-011 1   
     length 1.19837   
     axis -90 7.62852e-016 20   XYZ
    dof rx
    limits (-90.0 20.0)
  end
  begin
     id 6 
     name rhipjoint
     direction -0.569886 -0.769002 0.289597   
     length 2.40495  
     axis 0 0 0  XYZ 
  end
  begin
     id 7 
     name rfemur
     direction -0.34202 -0.939693 0   
     length 7.45086   
     axis 0 0 -20   XYZ
    dof rx ry rz
    limits (-160.0 20.0)
           (-70.0 70.0)
           (-70.0 60.0)
  end
  begin
     id 8 
     name rtibia
     direction -0.34202 -0.939693 0   
     length 7.76831   
     axis 0 0 -20   XYZ
    dof rx
    limits (-10.0 170.0)
 end
 begin
     id 9 
     name rfoot
     direction -0.0798572 -0.219406 0.97236   
     length 2.35911  
     axis -90 -7.62852e-016 -20   XYZ
    dof rx rz
    limits (-45.0 90.0)
           (-20.0 70.0)
  end
  begin
     id 10 
     name rtoes
     direction -1.53469e-011 -4.21728e-011 1   
     length 1.18261   
     axis -90 -7.62852e-016 -20   XYZ
    dof rx
    limits (-90.0 20.0)
  end
  begin
     id 11 
     name lowerback
     direction 0.0242088 0.999437 0.0232389   
     length 2.1561   
     axis 0 0 0   XYZ
    dof rx ry rz
    limits (-20.0 45.0)
           (-30.0 30.0)
           (-30.0 30.0)
  end
  begin
     id 12 
     name upperback
     direction -0.0356893 0.999013 -0.0264323   
     length 2.14431   
     axis 0 0 0   XYZ
    dof rx ry rz
    limits (-20.0 45.0)
           (-30.0 30.0)
           (-30.0 30.0)
  end
  begin
     id 13 
     name thorax
     direction -0.0472163 0.998194 -0.0371284   
     length 2.16169   
     axis 0 0 0   XYZ
    dof rx ry rz
    limits (-20.0 45.0)
           (-30.0 30.0)
           (-30.0 30.0)
  end
  begin
     id 14 
     name lowerneck
     direction 0.00863244 0.999921 0.00911972   
     length 1.58651   
     axis 0 0 0   XYZ
    dof rx ry rz
    limits (-20.0 45.0)
           (-30.0 30.0)
           (-30.0 30.0)
  end
  begin
     id 15 
     name upperneck
     direction 0.149523 0.979068 -0.138086   
     length 1.57486   
     axis 0 0 0   XYZ
    dof rx ry rz
    limits (-20.0 45.0)
           (-30.0 30.0)
           (-30.0 30.0)
  end
  begin
     id 16
     name head
     direction 0.0445219 0.997708 -0.0509576  
     length 1.6019  
     axis 0 0 0   XYZ
    dof rx ry rz
    limits (-20.0 45.0)
           (-30.0 30.0)
           (-30.0 30.0)
  end
  begin
     id 17 
     name lclavicle
     direction 0.911271 0.381667 -0.154644  
     length 3.80848  
     axis 0 0 0   XYZ
    dof ry rz
    limits (-20.0 10.0)
           (0.0 20.0)
  end
  begin
     id 18 
     name lhumerus
     direction 1 -4.49003e-011 2.1308e-027   
     length 5.19069   
     axis 180 -30 -90   XYZ
    dof rx ry rz
    limits (-60.0 90.0)
           (-90.0 90.0)
           (-90.0 90.0)
  end
  begin
     id 19
     name lradius
     direction 1 -4.48914e-011 4.01554e-027   
     length 3.30016   
     axis 180 -30 -90   XYZ
    dof rx
    limits (-10.0 170.0)
  end
  begin
     id 20
     name lwrist
     direction 1 -4.49003e-011 1.1934e-026   
     length 1.65008   
     axis -8.46377e-015 90 90   XYZ
    dof ry
    limits (-180.0 0.0)
 end
  begin
     id 21 
     name lhand
     direction 1 -4.49034e-011 2.38659e-026   
     length 0.707698   
     axis -1.52313e-014 90 90   XYZ
    dof rx rz
    limits (-90.0 90.0)
           (-45.0 45.0)
  end
  begin
     id 22 
     name lfingers
     direction 1 -4.48691e-011 4.77775e-026   
     length 0.570564   
     axis -3.04623e-014 90 90   XYZ
    dof rx
    limits (0.0 90.0)
  end
  begin
     id 23
     name lthumb
     direction 0.707107 -6.34832e-011 0.707107   
     length 0.819219   
     axis -90 45 -1.62303e-014   XYZ
    dof rx rz
    limits (-45.0 45.0)
           (-45.0 45.0)
  end
  begin
     id 24 
     name rclavicle
     direction -0.815579 0.573708 -0.0754329   
     length 3.54371  
     axis 0 0 0   XYZ 
    dof ry rz
    limits (-10.0 20.0)
           (-20.0 0.0)
  end
  begin
     id 25 
     name rhumerus
     direction -1 -4.48956e-011 3.05351e-028  
     length 5.23924   
     axis 180 30 90   XYZ
    dof rx ry rz
    limits (-90.0 60.0)
           (-90.0 90.0)
           (-90.0 90.0)
  end
  begin
     id 26 
     name rradius
     direction -1 -4.49013e-011 3.53849e-027   
     length 3.32953   
     axis 180 30 90   XYZ
    dof rx
    limits (-10.0 170.0)
  end
  begin
     id 27 
     name rwrist
     direction -1 -4.48901e-011 1.19374e-026   
     length 1.66477   
     axis -8.46377e-015 -90 -90   XYZ
    dof ry
    limits (-180.0 0.0)
  end
  begin
     id 28
     name rhand
     direction -1 -4.48877e-011 2.38764e-026   
     length 0.607414   
     axis -1.52313e-014 -90 -90   XYZ
    dof rx rz
    limits (-90.0 90.0)
           (-45.0 45.0)
  end
  begin
     id 29
     name rfingers
     direction -1 -4.48882e-011 4.77521e-026   
     length 0.489712   
     axis -3.04623e-014 -90 -90   XYZ
    dof rx
    limits (0.0 90.0)
  end
  begin
     id 30
     name rthumb
     direction -0.707107 -6.34974e-011 0.707107   
     length 0.703132   
     axis -90 -45 1.62303e-014   XYZ
    dof rx rz
    limits (-45.0 45.0)
           (-45.0 45.0)
  end
:hierarchy
  begin
    root lhipjoint rhipjoint lowerback
    lhipjoint lfemur
    lfemur ltibia
    ltibia lfoot
    lfoot ltoes
    rhipjoint rfemur
    rfemur rtibia
    rtibia rfoot
    rfoot rtoes
    lowerback upperback
    upperback thorax
    thorax lowerneck lclavicle rclavicle
    lowerneck upperneck
    upperneck head
    lclavicle lhumerus
    lhumerus lradius
    lradius lwrist
    lwrist lhand lthumb
    lhand lfingers
    rclavicle rhumerus
    rhumerus rradius
    rradius rwrist
    rwrist rhand rthumb
    rhand rfingers
  end

#!OML:ASF E:\VariousWalksJay\Project 1\Capture day 1\Session 1\Actor2.ASF
:FULLY-SPECIFIED
:DEGREES
253
root 16.6599 17.4495 -29.0459 0.433958 -16.0544 -2.33926
lowerback 2.12203 -4.16279 -0.186634
upperback 4.19046 -5.49341 -3.64992
thorax 2.78697 -2.70399 -3.66247
lowerneck -7.13525 1.90687 -0.658034
upperneck 4.12008 1.56189 17.0431
head 2.27871 1.28785 5.35199
rclavicle -1.24439e-013 1.59028e-015
rhumerus -44.3341 13.5582 -98.9524
rradius 27.9465
rwrist -7.30715
rhand -22.3462 3.37725
rfingers 7.12502
rthumb 4.07448 -26.5635
lclavicle -1.24439e-013 1.59028e-015
lhumerus -26.7972 -17.4234 86.8037
lradius 60.8578
lwrist 33.1883
lhand -20.1967 -16.065
lfingers 7.12502
lthumb 6.14991 13.8258
rfemur -43.1772 5.29013 21.5563
rtibia 32.9028
rfoot -30.5328 -14.0638
rtoes -20.3943
lfemur -5.88603 13.9659 -22.073
ltibia 27.2072
lfoot -24.3149 11.0318
ltoes -0.316904
254
root 16.6902 17.4966 -29.0022 0.50915 -16.162 -2.34216
lowerback 1.98467 -4.42625 -0.00566763
upperback 4.10408 -5.84624 -3.57293
thorax 2.74324 -2.87747 -3.68762
lowerneck -7.16795 2.15022 -0.484537
upperneck 4.26984 1.85885 16.8928
head 2.30348 1.44185 5.28885
rclavicle -5.66536e-014 -1.59028e-014
rhumerus -46.2005 15.097 -100.184
rradius 27.8796
rwrist -7.18855
rhand -22.2684 3.80276
rfingers 7.12502
rthumb 4.1496 -26.1366
lclavicle -5.66536e-014 -1.59028e-014
lhumerus -25.7527 -19.0645 87.2858
lradius 64.0348
lwrist 33.2958
lhand -19.3881 -16.6652
lfingers 7.12502
lthumb 6.93055 13.2014
rfemur -44.4593 4.33656 22.2384
rtibia 31.5146
rfoot -30.5381 -12.3714
rtoes -21.0929
lfemur -4.98198 13.7182 -22.2086
ltibia 25.5532
lfoot -23.6854 11.2091
ltoes -0.605135
255
root 16.7178 17.5438 -28.9561 0.569422 -16.2652 -2.29199
lowerback 1.84232 -4.68572 0.122253
upperback 4.01825 -6.19373 -3.5088
thorax 2.70627 -3.0496 -3.69767
lowerneck -7.23554 2.3895 -0.274784
upperneck 4.41479 2.14682 16.717
head 2.3354 1.59244 5.21223
rclavicle 3.43897e-014 1.11319e-014
rhumerus -48.0889 16.4418 -101.378
rradius 27.9753
rwrist -7.30421
rhand -22.2312 4.15595
rfingers 7.12502
rthumb 4.18551 -25.7827
lclavicle 3.43897e-014 1.11319e-014
lhumerus -24.6318 -20.7299 87.5156
lradius 67.2212
lwrist 33.3025
lhand -18.4977 -17.1542
lfingers 7.12502
lthumb 7.78994 12.6823
rfemur -45.7695 3.42235 22.9217
rtibia 30.3903
rfoot -30.5203 -10.7035
rtoes -21.9084
lfemur -4.01552 13.4173 -22.3972
ltibia 23.7988
lfoot -23.0128 11.4347
ltoes -0.923525
256
root 16.7424 17.5907 -28.9083 0.615264 -16.3705 -2.19749
lowerback 1.73479 -4.9505 0.18255
upperback 3.90407 -6.54947 -3.43776
thorax 2.62747 -3.22851 -3.65866
lowerneck -7.29457 2.62979 -0.0621977
upperneck 4.56272 2.43697 16.5191
head 2.36799 1.74327 5.12863
rclavicle 6.7388e-014 4.29375e-014
rhumerus -50.0129 17.5707 -102.459
rradius 28.2254
rwrist -7.58701
rhand -22.2155 4.44279
rfingers 7.12502
rthumb 4.20068 -25.4955
lclavicle 6.7388e-014 4.29375e-014
lhumerus -23.4778 -22.3088 87.522
lradius 70.3777
lwrist 33.1004
lhand -17.5261 -17.5872
lfingers 7.12502
lthumb 8.72763 12.2123
rfemur -47.093 2.63679 23.5537
rtibia 29.5285
rfoot -30.4964 -9.26794
rtoes -22.7177
lfemur -2.9867 13.0705 -22.6291
ltibia 21.9404
lfoot -22.2772 11.7098
ltoes -1.23948
257
root 16.7638 17.6369 -28.8597 0.645982 -16.4554 -2.06662
lowerback 1.63907 -5.13884 0.24067
upperback 3.862 -6.80106 -3.43046
thorax 2.61613 -3.35344 -3.68831
lowerneck -7.63138 2.78064 0.335413
upperneck 4.72018 2.56998 16.2904
head 2.46916 1.83082 5.00628
rclavicle -8.22969e-014 -9.54166e-015
rhumerus -51.656 18.1122 -103.246
rradius 28.5596
rwrist -7.87435
rhand -22.215 4.70096
rfingers 7.12502
rthumb 4.20117 -25.2374
lclavicle -8.22969e-014 -9.54166e-015
lhumerus -22.0513 -24.0916 87.1969
lradius 73.4544
lwrist 32.7269
lhand -16.7393 -18.1574
lfingers 7.12502
lthumb 9.48684 11.6091
rfemur -48.4078 2.01426 24.0865
rtibia 28.9164
rfoot -30.4702 -8.23135
rtoes -23.5528
lfemur -1.89506 12.6885 -22.8902
ltibia 19.9741
lfoot -21.45 12.0058
ltoes -1.52089
258
root 16.7823 17.6822 -28.8091 0.647533 -16.5444 -1.90218
lowerback 1.47858 -5.27448 0.319989
upperback 3.91588 -6.97886 -3.50147
thorax 2.73277 -3.43771 -3.82403
lowerneck -8.13708 2.88217 0.879636
upperneck 4.84257 2.61068 16.0542
head 2.5998 1.87976 4.85835
rclavicle 3.16068e-014 1.43125e-014
rhumerus -52.9878 18.1621 -103.739
rradius 28.9557
rwrist -8.08787
rhand -22.2212 4.93853
rfingers 7.12502
rthumb 4.1952 -24.9999
lclavicle 3.16068e-014 1.43125e-014
lhumerus -20.348 -25.9628 86.4778
lradius 76.4425
lwrist 32.2595
lhand -15.9108 -18.6287
lfingers 7.12502
lthumb 10.2862 11.0998
rfemur -49.6742 1.54513 24.5208
rtibia 28.5225
rfoot -30.429 -7.59356
rtoes -24.4472
lfemur -0.718426 12.3005 -23.1765
ltibia 17.9021
lfoot -20.5257 12.3158
ltoes -1.71702
259
root 16.7985 17.7263 -28.7582 0.640956 -16.5858 -1.72835
lowerback 1.31348 -5.36713 0.41674
upperback 4.03145 -7.09768 -3.62006
thorax 2.91122 -3.4899 -4.02404
lowerneck -8.8289 2.93041 1.56508
upperneck 4.96239 2.5445 15.7913
head 2.77245 1.88467 4.67998
rclavicle -2.98177e-015 1.74931e-014
rhumerus -54.0314 17.7412 -103.899
rradius 29.3963
rwrist -8.17647
rhand -22.2228 5.19902
rfingers 7.12502
rthumb 4.19362 -24.7394
lclavicle -2.98177e-015 1.74931e-014
lhumerus -18.3892 -27.891 85.4133
lradius 79.3338
lwrist 31.8177
lhand -15.0907 -19.0907
lfingers 7.12502
lthumb 11.0773 10.597
rfemur -50.8887 1.19915 24.8471
rtibia 28.3085
rfoot -30.3962 -7.29234
rtoes -25.1864
lfemur 0.521354 11.9014 -23.46
ltibia 15.7182
lfoot -19.4591 12.6049
ltoes -1.86467
260
root 16.8126 17.7691 -28.7059 0.621528 -16.6093 -1.56062
lowerback 1.16043 -5.41651 0.52805
upperback 4.19235 -7.15796 -3.76364
thorax 3.12882 -3.51064 -4.26069
lowerneck -9.67607 2.942 2.3676
upperneck 5.09582 2.39148 15.4858
head 2.98301 1.85397 4.47006
rclavicle -2.16675e-014 7.95139e-015
rhumerus -54.8463 16.945 -103.757
rradius 29.8802
rwrist -8.14997
rhand -22.2384 5.46077
rfingers 7.12502
rthumb 4.17859 -24.478
lclavicle -2.16675e-014 7.95139e-015
lhumerus -16.202 -29.7915 84.0429
lradius 82.1206
lwrist 31.4707
lhand -14.3123 -19.5297
lfingers 7.12502
lthumb 11.828 10.1163
rfemur -52.022 0.955317 25.0998
rtibia 28.2262
rfoot -30.35 -7.17672
rtoes -25.8914
lfemur 1.85082 11.5287 -23.7224
ltibia 13.4025
lfoot -18.2488 12.8703
ltoes -1.98055
261
root 16.8257 17.8108 -28.6526 0.592299 -16.6058 -1.41758
lowerback 1.03693 -5.44328 0.659888
upperback 4.37609 -7.18842 -3.90594
thorax 3.35352 -3.51485 -4.50657
lowerneck -10.6188 2.93821 3.2401
upperneck 5.24499 2.18586 15.1343
head 3.21701 1.80104 4.23462
rclavicle -9.34288e-014 -2.8625e-014
rhumerus -55.5057 15.8943 -103.372
rradius 30.3895
rwrist -8.04412
rhand -22.274 5.71207
rfingers 7.12502
rthumb 4.14417 -24.2274
lclavicle -9.34288e-014 -2.8625e-014
lhumerus -13.8385 -31.5651 82.4293
lradius 84.7891
lwrist 31.2394
lhand -13.7149 -19.9534
lfingers 7.12502
lthumb 12.404 9.65861
rfemur -53.0654 0.786834 25.295
rtibia 28.248
rfoot -30.3111 -7.09689
rtoes -26.464
lfemur 3.32505 11.1865 -23.9436
ltibia 10.8546
lfoot -16.8413 13.1075
ltoes -2.10753
262
root 16.838 17.8511 -28.598 0.552577 -16.595 -1.31396
lowerback 0.937629 -5.47318 0.814096
upperback 4.55765 -7.22455 -4.02151
thorax 3.56274 -3.52104 -4.73506
lowerneck -11.5429 2.95428 4.10453
upperneck 5.39787 1.99515 14.7527
head 3.44488 1.75272 3.99147
rclavicle -6.95746e-014 -1.43125e-014
rhumerus -56.1098 14.7557 -102.828
rradius 30.9156
rwrist -7.92997
rhand -22.3444 5.94384
rfingers 7.12502
rthumb 4.07615 -23.9969
lclavicle -6.95746e-014 -1.43125e-014
lhumerus -11.3951 -33.0857 80.6575
lradius 87.333
lwrist 31.1171
lhand -13.2477 -20.3114
lfingers 7.12502
lthumb 12.8544 9.27276
rfemur -53.9991 0.706776 25.4441
rtibia 28.3206
rfoot -30.2869 -6.9739
rtoes -26.9007
lfemur 5.05387 11.2246 -24.0763
ltibia 7.89127
lfoot -15.1184 12.995
ltoes -2.27666
263
root 16.8504 17.8912 -28.5401 0.47192 -16.554 -1.19965
lowerback 0.851142 -5.58419 0.935418
upperback 4.67125 -7.37172 -4.07345
thorax 3.69619 -3.58627 -4.87422
lowerneck -12.1526 3.03467 4.73978
upperneck 5.51757 1.94939 14.3993
head 3.59592 1.75724 3.79443
rclavicle 1.01579e-013 1.59028e-014
rhumerus -56.8738 13.8333 -102.223
rradius 31.4649
rwrist -7.87754
rhand -22.4257 6.15669
rfingers 7.12502
rthumb 3.99768 -23.7856
lclavicle 1.01579e-013 1.59028e-014
lhumerus -9.15316 -34.1074 78.9519
lradius 89.7428
lwrist 31.0058
lhand -13.1071 -20.5821
lfingers 7.12502
lthumb 12.99 8.99353
rfemur -54.8032 0.64239 25.5115
rtibia 28.4221
rfoot -30.2983 -6.69586
rtoes -27.2026
lfemur 7.55187 11.2342 -24.1813
ltibia 3.56638
lfoot -12.695 12.9726
ltoes -2.55365
264
root 16.8622 17.9301 -28.4823 0.406309 -16.5196 -1.16288
lowerback 0.77315 -5.78149 1.09677
upperback 4.66915 -7.63968 -4.02469
thorax 3.70058 -3.71562 -4.92173
lowerneck -12.283 3.17955 5.07969
upperneck 5.56785 2.09108 14.1028
head 3.63109 1.82735 3.66141
rclavicle 2.28602e-014 1.59028e-015
rhumerus -57.8714 13.2211 -101.597
rradius 32.0158
rwrist -7.89982
rhand -22.5019 6.35477
rfingers 7.12502
rthumb 3.92409 -23.5888
lclavicle 2.28602e-014 1.59028e-015
lhumerus -7.29709 -34.6067 77.4665
lradius 92.0113
lwrist 30.8748
lhand -12.9184 -20.8067
lfingers 7.12502
lthumb 13.1718 8.75724
rfemur -55.5064 0.689313 25.557
rtibia 28.5223
rfoot -30.3444 -6.3327
rtoes -27.3879
lfemur 9.67302 11.248 -24.1757
ltibia -7.95139e-015
lfoot -10.6164 12.9031
ltoes -2.94251
265
root 16.8734 17.9684 -28.4237 0.341764 -16.4772 -1.16221
lowerback 0.705189 -6.06179 1.25427
upperback 4.55986 -8.02246 -3.88262
thorax 3.58957 -3.90746 -4.86106
lowerneck -11.9955 3.37749 5.13169
upperneck 5.56808 2.40017 13.8609
head 3.56911 1.95786 3.59026
rclavicle 7.15625e-015 -1.90833e-014
rhumerus -59.0677 12.9423 -100.956
rradius 32.5379
rwrist -7.98043
rhand -22.5543 6.55361
rfingers 7.12502
rthumb 3.87354 -23.3909
lclavicle 7.15625e-015 -1.90833e-014
lhumerus -5.84134 -34.6539 76.2585
lradius 94.1176
lwrist 30.7001
lhand -12.753 -21.0002
lfingers 7.12502
lthumb 13.3313 8.55339
rfemur -56.1101 0.784603 25.5703
rtibia 28.6189
rfoot -30.4196 -5.89524
rtoes -27.5077
lfemur 9.96143 11.2548 -24.1423
ltibia 4.77083e-015
lfoot -10.2729 12.6128
ltoes -3.47324
266
root 16.8838 18.0061 -28.3636 0.281601 -16.456 -1.1953
lowerback 0.633669 -6.45927 1.38713
upperback 4.31497 -8.56519 -3.62194
thorax 3.3464 -4.18598 -4.65378
lowerneck -11.1818 3.66439 4.81269
upperneck 5.51084 2.94574 13.6897
head 3.38387 2.17861 3.59778
rclavicle -7.03698e-014 1.11319e-014
rhumerus -60.5238 13.1883 -100.363
rradius 33.0189
rwrist -8.1218
rhand -22.568 6.74064
rfingers 7.12502
rthumb 3.86027 -23.2041
lclavicle -7.03698e-014 1.11319e-014
lhumerus -4.9478 -34.1581 75.432
lradius 96.062
lwrist 30.4362
lhand -12.6654 -21.1684
lfingers 7.12502
lthumb 13.4158 8.37961
rfemur -56.6081 0.911287 25.5915
rtibia 28.6866
rfoot -30.5007 -5.38882
rtoes -27.5427
lfemur 10.2668 11.2816 -24.0625
ltibia 3.18055e-015
lfoot -9.93581 12.3134
ltoes -4.09505
267
root 16.8929 18.0432 -28.303 0.242879 -16.4443 -1.26695
lowerback 0.576388 -6.89817 1.50407
upperback 4.01771 -9.16356 -3.28851
thorax 3.0536 -4.49495 -4.3565
lowerneck -10.2564 3.99453 4.37124
upperneck 5.48005 3.5686 13.5127
head 3.18084 2.43422 3.62095
rclavicle 4.70126e-014 -3.18055e-015
rhumerus -61.9929 13.7043 -99.7893
rradius 33.4169
rwrist -8.26889
rhand -22.5552 6.90171
rfingers 7.12502
rthumb 3.87263 -23.0428
lclavicle 4.70126e-014 -3.18055e-015
lhumerus -4.30456 -33.4049 74.7893
lradius 97.8201
lwrist 30.1027
lhand -12.5648 -21.343
lfingers 7.12502
lthumb 13.5127 8.19857
rfemur -57.0207 1.06431 25.6278
rtibia 28.7352
rfoot -30.5804 -4.8578
rtoes -27.4128
lfemur 10.5644 11.315 -23.9327
ltibia 2.06736e-014
lfoot -9.59456 12.0118
ltoes -4.80308
